<mxfile host="app.diagrams.net" modified="2024-06-01T07:22:31.405Z" agent="Mozilla/5.0 (Windows NT 10.0; Win64; x64) AppleWebKit/537.36 (KHTML, like Gecko) Chrome/125.0.0.0 Safari/537.36 Edg/125.0.0.0" etag="aEKK-dPk6pPrWXxtH5gF" version="24.4.13" type="device">
  <diagram name="第 1 页" id="oqhrg82Xkl_tlRnjt19m">
    <mxGraphModel dx="650" dy="805" grid="1" gridSize="10" guides="1" tooltips="1" connect="1" arrows="1" fold="1" page="1" pageScale="1" pageWidth="827" pageHeight="1169" math="0" shadow="0">
      <root>
        <mxCell id="0" />
        <mxCell id="1" parent="0" />
        <mxCell id="u1vy1T0BJOAn9LETA650-1" style="edgeStyle=orthogonalEdgeStyle;rounded=0;orthogonalLoop=1;jettySize=auto;html=1;exitX=1;exitY=0.5;exitDx=0;exitDy=0;entryX=0;entryY=0.5;entryDx=0;entryDy=0;" edge="1" parent="1" source="u1vy1T0BJOAn9LETA650-2" target="u1vy1T0BJOAn9LETA650-4">
          <mxGeometry relative="1" as="geometry" />
        </mxCell>
        <mxCell id="u1vy1T0BJOAn9LETA650-2" value="LSTM" style="rounded=1;whiteSpace=wrap;html=1;fillColor=#dae8fc;strokeColor=#6c8ebf;" vertex="1" parent="1">
          <mxGeometry x="130" y="170" width="80" height="40" as="geometry" />
        </mxCell>
        <mxCell id="u1vy1T0BJOAn9LETA650-3" style="edgeStyle=orthogonalEdgeStyle;rounded=0;orthogonalLoop=1;jettySize=auto;html=1;exitX=1;exitY=0.5;exitDx=0;exitDy=0;entryX=0;entryY=0.5;entryDx=0;entryDy=0;" edge="1" parent="1" source="u1vy1T0BJOAn9LETA650-4" target="u1vy1T0BJOAn9LETA650-6">
          <mxGeometry relative="1" as="geometry" />
        </mxCell>
        <mxCell id="u1vy1T0BJOAn9LETA650-4" value="Linear" style="rounded=1;whiteSpace=wrap;html=1;fillColor=#f5f5f5;fontColor=#333333;strokeColor=#666666;" vertex="1" parent="1">
          <mxGeometry x="250" y="170" width="80" height="40" as="geometry" />
        </mxCell>
        <mxCell id="u1vy1T0BJOAn9LETA650-5" value="" style="edgeStyle=orthogonalEdgeStyle;rounded=0;orthogonalLoop=1;jettySize=auto;html=1;" edge="1" parent="1" source="u1vy1T0BJOAn9LETA650-6" target="u1vy1T0BJOAn9LETA650-8">
          <mxGeometry relative="1" as="geometry" />
        </mxCell>
        <mxCell id="u1vy1T0BJOAn9LETA650-6" value="ReLu" style="rounded=1;whiteSpace=wrap;html=1;fillColor=#e1d5e7;strokeColor=#9673a6;" vertex="1" parent="1">
          <mxGeometry x="370" y="170" width="80" height="40" as="geometry" />
        </mxCell>
        <mxCell id="u1vy1T0BJOAn9LETA650-7" style="edgeStyle=orthogonalEdgeStyle;rounded=0;orthogonalLoop=1;jettySize=auto;html=1;exitX=0.5;exitY=1;exitDx=0;exitDy=0;entryX=0.5;entryY=0;entryDx=0;entryDy=0;" edge="1" parent="1" source="u1vy1T0BJOAn9LETA650-8">
          <mxGeometry relative="1" as="geometry">
            <mxPoint x="530" y="250" as="targetPoint" />
          </mxGeometry>
        </mxCell>
        <mxCell id="u1vy1T0BJOAn9LETA650-8" value="Dropout" style="rounded=1;whiteSpace=wrap;html=1;" vertex="1" parent="1">
          <mxGeometry x="490" y="170" width="80" height="40" as="geometry" />
        </mxCell>
        <mxCell id="u1vy1T0BJOAn9LETA650-9" style="edgeStyle=orthogonalEdgeStyle;rounded=0;orthogonalLoop=1;jettySize=auto;html=1;entryX=1;entryY=0.5;entryDx=0;entryDy=0;" edge="1" parent="1">
          <mxGeometry relative="1" as="geometry">
            <mxPoint x="490" y="270" as="sourcePoint" />
            <mxPoint x="450" y="270" as="targetPoint" />
          </mxGeometry>
        </mxCell>
        <mxCell id="u1vy1T0BJOAn9LETA650-10" style="edgeStyle=orthogonalEdgeStyle;rounded=0;orthogonalLoop=1;jettySize=auto;html=1;" edge="1" parent="1" target="u1vy1T0BJOAn9LETA650-12">
          <mxGeometry relative="1" as="geometry">
            <mxPoint x="370" y="270" as="sourcePoint" />
          </mxGeometry>
        </mxCell>
        <mxCell id="u1vy1T0BJOAn9LETA650-11" style="edgeStyle=orthogonalEdgeStyle;rounded=0;orthogonalLoop=1;jettySize=auto;html=1;entryX=1;entryY=0.5;entryDx=0;entryDy=0;" edge="1" parent="1" source="u1vy1T0BJOAn9LETA650-12" target="u1vy1T0BJOAn9LETA650-13">
          <mxGeometry relative="1" as="geometry" />
        </mxCell>
        <mxCell id="u1vy1T0BJOAn9LETA650-12" value="Linear" style="rounded=1;whiteSpace=wrap;html=1;fillColor=#f5f5f5;fontColor=#333333;strokeColor=#666666;" vertex="1" parent="1">
          <mxGeometry x="250" y="250" width="80" height="40" as="geometry" />
        </mxCell>
        <mxCell id="u1vy1T0BJOAn9LETA650-13" value="AvgPool" style="rounded=1;whiteSpace=wrap;html=1;fillColor=#fff2cc;strokeColor=#d6b656;" vertex="1" parent="1">
          <mxGeometry x="130" y="250" width="80" height="40" as="geometry" />
        </mxCell>
        <mxCell id="u1vy1T0BJOAn9LETA650-14" value="LayerNorm" style="rounded=1;whiteSpace=wrap;html=1;fillColor=#d5e8d4;strokeColor=#82b366;" vertex="1" parent="1">
          <mxGeometry x="370" y="250" width="80" height="40" as="geometry" />
        </mxCell>
        <mxCell id="u1vy1T0BJOAn9LETA650-15" value="Multihead&lt;div&gt;Attention&lt;/div&gt;" style="rounded=1;whiteSpace=wrap;html=1;fillColor=#ffe6cc;strokeColor=#d79b00;" vertex="1" parent="1">
          <mxGeometry x="490" y="250" width="80" height="40" as="geometry" />
        </mxCell>
      </root>
    </mxGraphModel>
  </diagram>
</mxfile>
